<svg width="40" height="46" viewBox="0 0 40 46" fill="none" xmlns="http://www.w3.org/2000/svg">
<path d="M19.9965 27.5485C15.4548 27.5485 11.7446 23.8597 11.7446 19.2967C11.7446 14.7338 15.4548 11.0663 19.9965 11.0663C24.5383 11.0663 28.2484 14.7551 28.2484 19.318C28.2484 23.8811 24.5383 27.5485 19.9965 27.5485ZM19.9965 14.2647C17.2246 14.2647 14.943 16.5249 14.943 19.318C14.943 22.1113 17.2033 24.3715 19.9965 24.3715C22.7898 24.3715 25.05 22.1113 25.05 19.318C25.05 16.5249 22.7685 14.2647 19.9965 14.2647Z" fill="#292D32"/>
<path d="M19.9965 27.5485C15.4548 27.5485 11.7446 23.8597 11.7446 19.2967C11.7446 14.7338 15.4548 11.0663 19.9965 11.0663C24.5383 11.0663 28.2484 14.7551 28.2484 19.318C28.2484 23.8811 24.5383 27.5485 19.9965 27.5485ZM19.9965 14.2647C17.2246 14.2647 14.943 16.5249 14.943 19.318C14.943 22.1113 17.2033 24.3715 19.9965 24.3715C22.7898 24.3715 25.05 22.1113 25.05 19.318C25.05 16.5249 22.7685 14.2647 19.9965 14.2647Z" stroke="black"/>
<path d="M19.9934 45.8648C16.8377 45.8648 13.6606 44.6708 11.1872 42.304C4.89703 36.2484 -2.05413 26.5892 0.568547 15.0964C2.93535 4.66964 12.0401 0 19.9934 0H20.0147C27.9681 0 37.0728 4.66964 39.4396 15.1177C42.041 26.6106 35.0898 36.2484 28.7996 42.304C26.3262 44.6708 23.1492 45.8648 19.9934 45.8648ZM19.9934 3.19838C13.7885 3.19838 5.8139 6.50338 3.70296 15.8C1.40013 25.843 7.71161 34.4999 13.4261 39.9798C17.1149 43.5407 22.8933 43.5407 26.5821 39.9798C32.2752 34.4999 38.5867 25.843 36.3265 15.8C34.1943 6.50338 26.1983 3.19838 19.9934 3.19838Z" fill="#292D32"/>
<path d="M19.9934 45.8648C16.8377 45.8648 13.6606 44.6708 11.1872 42.304C4.89703 36.2484 -2.05413 26.5892 0.568547 15.0964C2.93535 4.66964 12.0401 0 19.9934 0H20.0147C27.9681 0 37.0728 4.66964 39.4396 15.1177C42.041 26.6106 35.0898 36.2484 28.7996 42.304C26.3262 44.6708 23.1492 45.8648 19.9934 45.8648ZM19.9934 3.19838C13.7885 3.19838 5.8139 6.50338 3.70296 15.8C1.40013 25.843 7.71161 34.4999 13.4261 39.9798C17.1149 43.5407 22.8933 43.5407 26.5821 39.9798C32.2752 34.4999 38.5867 25.843 36.3265 15.8C34.1943 6.50338 26.1983 3.19838 19.9934 3.19838Z" stroke="black"/>
</svg>
