<svg width="44" height="42" viewBox="0 0 44 42" fill="none" xmlns="http://www.w3.org/2000/svg">
<path d="M6.75297 29.7633C6.28538 35.3939 10.5327 39.9919 16.1827 39.9919H25.515C31.8664 39.9919 36.2306 34.8678 35.1786 28.5943C34.068 22.0091 27.7166 16.6123 21.0339 16.6123C13.7863 16.6123 7.35694 22.5351 6.75297 29.7633Z" stroke="#292D32" stroke-width="2.5" stroke-linecap="round" stroke-linejoin="round"/>
<path d="M18.56 11.7415C21.25 11.7415 23.4307 9.56077 23.4307 6.87074C23.4307 4.18071 21.25 2 18.56 2C15.8699 2 13.6892 4.18071 13.6892 6.87074C13.6892 9.56077 15.8699 11.7415 18.56 11.7415Z" stroke="#292D32" stroke-width="2.5" stroke-linecap="round" stroke-linejoin="round"/>
<path d="M31.8683 14.0793C34.0204 14.0793 35.7649 12.3348 35.7649 10.1827C35.7649 8.0307 34.0204 6.28613 31.8683 6.28613C29.7164 6.28613 27.9717 8.0307 27.9717 10.1827C27.9717 12.3348 29.7164 14.0793 31.8683 14.0793Z" stroke="#292D32" stroke-width="2.5" stroke-linecap="round" stroke-linejoin="round"/>
<path d="M39.0777 21.8725C40.6917 21.8725 42.0002 20.564 42.0002 18.95C42.0002 17.3358 40.6917 16.0275 39.0777 16.0275C37.4637 16.0275 36.1553 17.3358 36.1553 18.95C36.1553 20.564 37.4637 21.8725 39.0777 21.8725Z" stroke="#292D32" stroke-width="2.5" stroke-linecap="round" stroke-linejoin="round"/>
<path d="M5.89659 17.9763C8.04862 17.9763 9.79319 16.2316 9.79319 14.0796C9.79319 11.9275 8.04862 10.183 5.89659 10.183C3.74456 10.183 2 11.9275 2 14.0796C2 16.2316 3.74456 17.9763 5.89659 17.9763Z" stroke="#292D32" stroke-width="2.5" stroke-linecap="round" stroke-linejoin="round"/>
</svg>
