<svg width="44" height="44" viewBox="0 0 44 44" fill="none" xmlns="http://www.w3.org/2000/svg">
<path d="M5.04228 28.712L14.8529 38.5325C18.8811 42.5647 25.4216 42.5647 29.4714 38.5325L38.9788 29.0155C43.007 24.9833 43.007 18.4363 38.9788 14.3825L29.1466 4.58378C27.0891 2.52431 24.2521 1.41869 21.35 1.57044L10.5215 2.09073C6.1901 2.28584 2.74664 5.73275 2.53007 10.0468L2.0103 20.886C1.88036 23.8126 2.98487 26.6526 5.04228 28.712Z" stroke="#292D32" stroke-width="3" stroke-linecap="round" stroke-linejoin="round"/>
<path d="M16.5866 21.558C19.5768 21.558 22.0009 19.1315 22.0009 16.1383C22.0009 13.1451 19.5768 10.7186 16.5866 10.7186C13.5964 10.7186 11.1724 13.1451 11.1724 16.1383C11.1724 19.1315 13.5964 21.558 16.5866 21.558Z" stroke="#292D32" stroke-width="3" stroke-linecap="round"/>
</svg>
