<svg width="43" height="43" viewBox="0 0 43 43" fill="none" xmlns="http://www.w3.org/2000/svg">
<path d="M41.5 43H1.5C0.68 43 0 42.32 0 41.5C0 40.68 0.68 40 1.5 40H41.5C42.32 40 43 40.68 43 41.5C43 42.32 42.32 43 41.5 43Z" fill="#292D32"/>
<path d="M39.2788 43C38.4588 43 37.7788 42.32 37.7788 41.5V23.5C37.7788 21.02 35.4588 19 32.6188 19H10.3787C7.53873 19 5.21875 21.02 5.21875 23.5V41.5C5.21875 42.32 4.53873 43 3.71875 43C2.89875 43 2.21875 42.32 2.21875 41.5V23.5C2.21875 19.36 5.87873 16 10.3787 16H32.5988C37.0988 16 40.7588 19.36 40.7588 23.5V41.5C40.7788 42.32 40.0988 43 39.2788 43Z" fill="#292D32"/>
<path d="M34.381 19C33.561 19 32.881 18.32 32.881 17.5V11.84C32.881 10.28 31.381 9 29.561 9H13.4611C11.6211 9 10.1411 10.28 10.1411 11.84V17.5C10.1411 18.32 9.46109 19 8.64109 19C7.82109 19 7.12109 18.32 7.12109 17.5V11.84C7.12109 8.62 9.96109 6 13.4411 6H29.541C33.021 6 35.861 8.62 35.861 11.84V17.5C35.881 18.32 35.201 19 34.381 19Z" fill="#292D32"/>
<path d="M32.1614 32.9998C29.8414 32.9998 27.9614 31.1198 27.9614 28.7998V28.1798C27.9614 27.5198 27.4214 26.9798 26.7614 26.9798C26.1014 26.9798 25.5614 27.5198 25.5614 28.1798V28.7998C25.5614 31.1198 23.6814 32.9998 21.3614 32.9998C19.0414 32.9998 17.1614 31.1198 17.1614 28.7998V28.1798C17.1614 27.5198 16.6214 26.9798 15.9614 26.9798C15.3014 26.9798 14.7614 27.5198 14.7614 28.1798V28.7998C14.7614 31.1198 12.8814 32.9998 10.5614 32.9998C8.24137 32.9998 6.36137 31.1198 6.36137 28.7998V28.1398C6.36137 27.4998 5.84137 26.9598 5.18137 26.9398H4.44137C3.62137 26.9198 2.94137 26.2398 2.96137 25.4198C2.98137 24.5998 3.64137 23.9398 4.46137 23.9398H4.48137H5.22137C7.50137 23.9798 9.36137 25.8598 9.36137 28.1398V28.7998C9.36137 29.4598 9.90137 29.9998 10.5614 29.9998C11.2214 29.9998 11.7614 29.4598 11.7614 28.7998V28.1798C11.7614 25.8598 13.6414 23.9798 15.9614 23.9798C18.2814 23.9798 20.1614 25.8598 20.1614 28.1798V28.7998C20.1614 29.4598 20.7014 29.9998 21.3614 29.9998C22.0214 29.9998 22.5614 29.4598 22.5614 28.7998V28.1798C22.5614 25.8598 24.4414 23.9798 26.7614 23.9798C29.0814 23.9798 30.9614 25.8598 30.9614 28.1798V28.7998C30.9614 29.4598 31.5014 29.9998 32.1614 29.9998C32.8214 29.9998 33.3614 29.4598 33.3614 28.7998V28.1798C33.3614 25.8598 35.2414 23.9798 37.5614 23.9798H38.4614C39.2814 23.9798 39.9614 24.6598 39.9614 25.4798C39.9614 26.2998 39.2814 26.9798 38.4614 26.9798H37.5614C36.9014 26.9798 36.3614 27.5198 36.3614 28.1798V28.7998C36.3614 31.1198 34.4814 32.9998 32.1614 32.9998Z" fill="#292D32"/>
<path d="M13.5 9C12.68 9 12 8.32 12 7.5V3.5C12 2.68 12.68 2 13.5 2C14.32 2 15 2.68 15 3.5V7.5C15 8.32 14.32 9 13.5 9Z" fill="#292D32"/>
<path d="M29.5002 9C28.6802 9 28.0002 8.32 28.0002 7.5V3.5C28.0002 2.68 28.6802 2 29.5002 2C30.3202 2 31.0002 2.68 31.0002 3.5V7.5C31.0002 8.32 30.3202 9 29.5002 9Z" fill="#292D32"/>
<path d="M21.5 9C20.68 9 20 8.32 20 7.5V1.5C20 0.68 20.68 0 21.5 0C22.32 0 23 0.68 23 1.5V7.5C23 8.32 22.32 9 21.5 9Z" fill="#292D32"/>
</svg>
