<svg width="44" height="44" viewBox="0 0 44 44" fill="none" xmlns="http://www.w3.org/2000/svg">
<path d="M26 29.9998C26 33.5398 24.46 36.7398 22 38.9198C19.88 40.8398 17.08 41.9998 14 41.9998C7.38001 41.9998 2 36.6198 2 29.9998C2 24.4798 5.76 19.7998 10.84 18.4198C12.22 21.8998 15.18 24.5798 18.84 25.5798C19.84 25.8598 20.9 25.9998 22 25.9998C23.1 25.9998 24.16 25.8598 25.16 25.5798C25.7 26.9398 26 28.4398 26 29.9998Z" stroke="#292D32" stroke-width="2.5" stroke-linecap="round" stroke-linejoin="round"/>
<path d="M34.001 14C34.001 15.56 33.701 17.06 33.161 18.42C31.781 21.9 28.821 24.58 25.161 25.58C24.161 25.86 23.101 26 22.001 26C20.901 26 19.841 25.86 18.841 25.58C15.181 24.58 12.221 21.9 10.841 18.42C10.301 17.06 10.001 15.56 10.001 14C10.001 7.38001 15.381 2 22.001 2C28.621 2 34.001 7.38001 34.001 14Z" stroke="#292D32" stroke-width="2.5" stroke-linecap="round" stroke-linejoin="round"/>
<path d="M42 29.9998C42 36.6198 36.62 41.9998 30 41.9998C26.92 41.9998 24.12 40.8398 22 38.9198C24.46 36.7398 26 33.5398 26 29.9998C26 28.4398 25.7 26.9398 25.16 25.5798C28.82 24.5798 31.78 21.8998 33.16 18.4198C38.24 19.7998 42 24.4798 42 29.9998Z" stroke="#292D32" stroke-width="2.5" stroke-linecap="round" stroke-linejoin="round"/>
</svg>
