<svg width="40" height="40" viewBox="0 0 40 40" fill="none" xmlns="http://www.w3.org/2000/svg">
<path d="M16.5851 39.9995C7.43405 39.9995 0 32.5655 0 23.4144C0 14.2633 7.43405 6.82922 16.5851 6.82922C25.7362 6.82922 33.1703 14.2633 33.1703 23.4144C33.1703 32.5655 25.7362 39.9995 16.5851 39.9995ZM16.5851 9.75601C9.05354 9.75601 2.92679 15.8828 2.92679 23.4144C2.92679 30.946 9.05354 37.0727 16.5851 37.0727C24.1167 37.0727 30.2435 30.946 30.2435 23.4144C30.2435 15.8828 24.1167 9.75601 16.5851 9.75601Z" fill="#292D32"/>
<path d="M27.8057 13.6582C27.435 13.6582 27.0642 13.5217 26.7716 13.229C26.2057 12.6631 26.2057 11.7266 26.7716 11.1607L37.5031 0.429145C38.069 -0.136701 39.0055 -0.136701 39.5714 0.429145C40.1372 0.994991 40.1372 1.93156 39.5714 2.49741L28.8398 13.229C28.5471 13.5217 28.1764 13.6582 27.8057 13.6582Z" fill="#292D32"/>
<path d="M38.5368 15.6094C37.7368 15.6094 37.0734 14.946 37.0734 14.146V2.92667H25.854C25.054 2.92667 24.3906 2.26326 24.3906 1.46327C24.3906 0.663284 25.054 -0.00012207 25.854 -0.00012207H38.5368C39.3368 -0.00012207 40.0002 0.663284 40.0002 1.46327V14.146C40.0002 14.946 39.3368 15.6094 38.5368 15.6094Z" fill="#292D32"/>
</svg>
