<svg width="40" height="45" viewBox="0 0 40 45" fill="none" xmlns="http://www.w3.org/2000/svg">
<path d="M24.1026 44.1026H15.8974C4.75897 44.1026 0 39.3436 0 28.2051V15.8974C0 4.75897 4.75897 0 15.8974 0H24.1026C35.241 0 40 4.75897 40 15.8974V28.2051C40 39.3436 35.241 44.1026 24.1026 44.1026ZM15.8974 3.07692C6.44103 3.07692 3.07692 6.44102 3.07692 15.8974V28.2051C3.07692 37.6615 6.44103 41.0256 15.8974 41.0256H24.1026C33.559 41.0256 36.9231 37.6615 36.9231 28.2051V15.8974C36.9231 6.44102 33.559 3.07692 24.1026 3.07692H15.8974Z" fill="#292D32"/>
<path d="M26.2948 23.1589C25.9256 23.1589 25.5563 23.0153 25.2691 22.7692C22.2743 20.1025 17.7204 20.1025 14.7256 22.7692C14.3974 23.0768 13.9461 23.1999 13.4743 23.1384C13.023 23.0768 12.6333 22.8102 12.3871 22.4204L7.91536 15.241C7.52561 14.6051 7.64867 13.7845 8.20252 13.2717C14.9307 7.30249 25.064 7.30249 31.7922 13.2717C32.3461 13.764 32.4691 14.6051 32.0794 15.241L27.6076 22.4204C27.3614 22.8102 26.9717 23.0563 26.5204 23.1384C26.4384 23.1384 26.3563 23.1589 26.2948 23.1589ZM19.9973 17.682C22.0486 17.682 24.0794 18.2563 25.864 19.3845L28.7358 14.7692C23.5461 10.9127 16.4281 10.9127 11.2384 14.7692L14.1102 19.3845C15.9153 18.2358 17.9461 17.682 19.9973 17.682Z" fill="#292D32"/>
</svg>
